Coordinates
version=1
nRows=11
nColumns=42
inDegrees=yes

Units are S.I. units (second, meters, Newtons, ...)
If the header above contains a line with 'inDegrees', this indicates whether rotational values are in degrees (yes) or radians (no).

endheader
time	pelvis_tilt	pelvis_list	pelvis_rotation	pelvis_tx	pelvis_ty	pelvis_tz	hip_flexion_r	hip_adduction_r	hip_rotation_r	knee_angle_r	knee_adduction_r	knee_angle_r_beta	ankle_angle_r	subtalar_angle_r	mtp_angle_r	hip_flexion_l	hip_adduction_l	hip_rotation_l	knee_angle_l	knee_adduction_l	knee_angle_l_beta	ankle_angle_l	subtalar_angle_l	mtp_angle_l	lumbar_extension	lumbar_bending	lumbar_rotation	arm_flex_r	arm_add_r	arm_rot_r	elbow_flex_r	pro_sup_r	wrist_flex_r	wrist_dev_r	arm_flex_l	arm_add_l	arm_rot_l	elbow_flex_l	pro_sup_l	wrist_flex_l	wrist_dev_l
      1.04000000	      7.84070047	     -1.73778728	      0.43725065	      0.53400307	      0.79864999	     -0.29645022	     27.27028031	     -3.01091040	    -34.23846597	     24.69411653	     -6.78454590	      0.43099364	     15.84432782	     27.20487418	     -7.50462686	    -21.68705089	     -4.21809677	    -32.81780817	     26.69183665	     -3.11958938	      0.46586043	     24.47779541	     31.57768499	     -7.50462686	    -19.73643899	      4.15807911	     -4.54439160	      0.44744115	    -18.08479969	     -5.56013243	     37.27648632	     90.00000001	      0.00000000	      0.00000000	      5.80092523	    -11.02060248	    -12.73176080	     60.76769211	     90.00000001	      0.00000000	      0.00000000
      1.05000000	      8.04660190	     -2.09493861	      0.60537278	      0.55091673	      0.79746268	     -0.29522357	     27.30375559	     -2.22077071	    -33.26715546	     26.48555515	     -7.77126858	      0.46226014	     15.17418430	     26.29631455	     -7.50454398	    -22.28929398	     -5.18192412	    -31.82889407	     28.29316733	     -3.21584322	      0.49380893	     22.51005418	     31.02287421	     -7.50454398	    -19.79049736	      4.64814902	     -4.44349569	      0.27753520	    -18.19222085	     -5.57477000	     37.17487484	     90.00000001	      0.00000000	      0.00000000	      5.75791675	    -10.87242682	    -12.67207668	     60.91541168	     90.00000001	      0.00000000	      0.00000000
      1.06000000	      8.22023229	     -2.42699415	      0.65770538	      0.56769464	      0.79664029	     -0.29384952	     27.09796809	     -1.16281275	    -30.53631772	     28.12469102	     -8.14901906	      0.49086846	     13.83306146	     22.34116581	     -7.50421585	    -22.75232808	     -5.97447287	    -30.09871011	     29.96641000	     -3.07857067	      0.52301252	     19.97831970	     28.76338137	     -7.50421585	    -19.87080208	      5.08812303	     -4.26464279	      0.19753100	    -18.29206234	     -5.38043162	     37.07870249	     90.00000001	      0.00000000	      0.00000000	      5.49602948	    -10.75363159	    -12.58987363	     61.09209858	     90.00000001	      0.00000000	      0.00000000
      1.07000000	      8.34560585	     -2.77071682	      0.71752093	      0.58445257	      0.79591441	     -0.29238581	     26.94606834	     -0.28992146	    -28.64191035	     29.95327509	     -8.55364295	      0.52278327	     12.84221451	     19.69683807	     -7.50387138	    -22.76988927	     -6.93992201	    -28.79953647	     32.26399922	     -3.15050561	      0.56311302	     17.35150951	     27.07808076	     -7.50387138	    -19.91056690	      5.53965044	     -4.04433844	      0.08837948	    -18.43471275	     -5.14219932	     36.94439741	     90.00000001	      0.00000000	      0.00000000	      5.25419776	    -10.60887461	    -12.65098068	     60.96730333	     90.00000001	      0.00000000	      0.00000000
      1.08000000	      8.43327599	     -3.15410287	      0.67159489	      0.60105104	      0.79538785	     -0.29082671	     26.79969678	      0.49467134	    -27.30141236	     31.80449501	     -8.89112335	      0.55509315	     12.05077066	     17.71860096	     -7.50369313	    -22.40065172	     -7.92283769	    -27.67388842	     35.04783554	     -3.43987526	      0.61170013	     14.19325976	     25.07554205	     -7.50369313	    -19.96990211	      6.02854631	     -3.69470932	      0.17862441	    -18.58388383	     -4.98974021	     36.90771420	     90.00000001	      0.00000000	      0.00000000	      4.94939901	    -10.46911090	    -12.72177074	     60.76250948	     90.00000001	      0.00000000	      0.00000000
      1.09000000	      8.45983979	     -3.46671853	      0.73365399	      0.61737779	      0.79521881	     -0.28918167	     26.51684979	      1.26203261	    -25.35654922	     33.52369946	     -8.84722492	      0.58509893	     11.57066078	     14.94478071	     -7.50341089	    -21.61745164	     -8.90115950	    -25.70627392	     38.24285990	     -3.33371976	      0.66746382	     11.59417139	     22.20984042	     -7.50341089	    -19.97962660	      6.42210120	     -3.43697819	      0.11521513	    -18.58780674	     -4.69999938	     36.76852681	     90.00000001	      0.00000000	      0.00000000	      4.63522626	    -10.23545284	    -12.86034313	     60.34771242	     90.00000001	      0.00000000	      0.00000000
      1.10000000	      8.49210545	     -3.85706378	      0.76913535	      0.63346271	      0.79522971	     -0.28752265	     26.18835287	      1.89296938	    -24.66378422	     35.12137040	     -9.00997484	      0.61298355	     11.71192590	     13.88820850	     -7.50329980	    -20.35392612	     -9.97479270	    -24.44642202	     42.00063215	     -3.81373995	      0.73304932	      8.94453759	     19.84864130	     -7.50329980	    -20.05767256	      6.89880776	     -3.11688004	      0.18123089	    -18.63113399	     -4.58909887	     36.73705340	     90.00000001	      0.00000000	      0.00000000	      4.24165971	    -10.09018142	    -12.95534899	     59.90092961	     90.00000001	      0.00000000	      0.00000000
      1.11000000	      8.44928566	     -4.26993142	      0.84329659	      0.64922912	      0.79559241	     -0.28581902	     25.73963517	      2.56851036	    -24.04574940	     36.39722616	     -9.08491846	      0.63525144	     12.18924658	     12.77953739	     -7.50319902	    -18.64954876	    -10.97379163	    -22.53227370	     46.05989875	     -4.08948795	      0.80389689	      6.67765544	     16.44319311	     -7.50319902	    -20.08567349	      7.38136655	     -2.82922432	      0.28741068	    -18.58741651	     -4.45189420	     36.70856118	     90.00000001	      0.00000000	      0.00000000	      3.85636805	     -9.94429938	    -13.08488147	     59.25940634	     90.00000001	      0.00000000	      0.00000000
      1.12000000	      8.46691106	     -4.58385695	      0.95050970	      0.66460452	      0.79656987	     -0.28425430	     24.97407807	      3.06604094	    -23.42486238	     37.33436866	     -8.89664869	      0.65160766	     12.70427478	     11.63247715	     -7.50300739	    -16.77700000	    -11.64204966	    -19.30247844	     50.13296071	     -3.56683673	      0.87498523	      4.52898762	     10.73606248	     -7.50300739	    -20.25118970	      7.75122995	     -2.51654995	      0.51859318	    -18.61526449	     -4.26711650	     36.61301874	     90.00000001	      0.00000000	      0.00000000	      3.57476577	     -9.75085983	    -13.31376728	     58.28687596	     90.00000001	      0.00000000	      0.00000000
      1.13000000	      8.45811040	     -4.99465335	      1.13751899	      0.67978944	      0.79776482	     -0.28275526	     24.09505995	      3.56965200	    -23.86034777	     37.90649930	     -9.08370689	      0.66159322	     13.76384601	     11.59012320	     -7.50287098	    -14.47341069	    -12.47085882	    -16.85018667	     54.40944936	     -3.49866758	      0.94962404	      3.02447053	      5.96759452	     -7.50287098	    -20.38805199	      8.22483617	     -2.23669290	      0.74647615	    -18.57956520	     -4.17253124	     36.56788185	     90.00000001	      0.00000000	      0.00000000	      3.22051284	     -9.59994348	    -13.45653104	     57.30254103	     90.00000001	      0.00000000	      0.00000000
      1.14000000	      8.43134936	     -5.32406594	      1.38145382	      0.69466289	      0.79939405	     -0.28141186	     23.02174612	      3.92271593	    -24.65026658	     38.08229199	     -9.28898754	      0.66466138	     14.93171809	     12.41394698	     -7.50269195	    -11.92342187	    -13.09046795	    -13.87163187	     58.53015135	     -2.94803223	      1.02154385	      1.83203553	      0.64077316	     -7.50269195	    -20.52522843	      8.60245282	     -2.01522278	      1.02356047	    -18.48067683	     -4.10455847	     36.53385725	     90.00000001	      0.00000000	      0.00000000	      2.89001555	     -9.47238255	    -13.60567480	     56.12460291	     90.00000001	      0.00000000	      0.00000000
